<?xml version="1.0" encoding="us-ascii" standalone="no"?><svg xmlns="http://www.w3.org/2000/svg" xmlns:xlink="http://www.w3.org/1999/xlink" contentStyleType="text/css" height="844px" preserveAspectRatio="none" style="width:982px;height:844px;background:#FFFFFF;" version="1.1" viewBox="0 0 982 844" width="982px" zoomAndPan="magnify"><defs/><g><!--class animal--><g id="elem_animal"><rect codeLine="1" fill="#F1F1F1" height="202.6719" id="animal" rx="2.5" ry="2.5" style="stroke:#181818;stroke-width:0.5;" width="194" x="286" y="7"/><ellipse cx="354.25" cy="23" fill="#ADD1B2" rx="11" ry="11" style="stroke:#181818;stroke-width:1.0;"/><path d="M353.0469,23.875 L354.5,23.875 L354.5,23.9844 C354.5,24.3906 354.5313,24.5469 354.6094,24.7031 C354.7656,24.9531 355.0469,25.1094 355.3438,25.1094 C355.5938,25.1094 355.8594,24.9688 356.0156,24.75 C356.1406,24.5938 356.1719,24.4375 356.1719,23.9844 L356.1719,22.0625 C356.1719,21.9063 356.1719,21.8594 356.1563,21.7031 C356.0938,21.2344 355.7813,20.9219 355.3281,20.9219 C355.0781,20.9219 354.8125,21.0625 354.6406,21.2813 C354.5313,21.4531 354.5,21.6094 354.5,22.0625 L354.5,22.1875 L353.0469,22.1875 L353.0469,19.7813 L357.0313,19.7813 L357.0313,20.6406 C357.0313,21.0469 357.0625,21.2188 357.1406,21.375 C357.3125,21.625 357.5938,21.7813 357.875,21.7813 C358.1406,21.7813 358.4063,21.6406 358.5781,21.4219 C358.6875,21.25 358.7188,21.1094 358.7188,20.6406 L358.7188,18.0938 L351.0938,18.0938 C350.6563,18.0938 350.5313,18.1094 350.375,18.2031 C350.125,18.3594 349.9688,18.6563 349.9688,18.9375 C349.9688,19.2188 350.1094,19.4688 350.3281,19.6406 C350.4844,19.75 350.6719,19.7813 351.0938,19.7813 L351.3438,19.7813 L351.3438,26.2969 L351.0938,26.2969 C350.6875,26.2969 350.5313,26.3125 350.375,26.4219 C350.125,26.5938 349.9688,26.8594 349.9688,27.1563 C349.9688,27.4219 350.1094,27.6719 350.3281,27.8281 C350.4688,27.9531 350.7031,28 351.0938,28 L359.0938,28 L359.0938,25.4219 C359.0938,24.9844 359.0625,24.8438 358.9844,24.6875 C358.8125,24.4375 358.5313,24.2813 358.25,24.2813 C357.9844,24.2813 357.7188,24.3906 357.5469,24.6406 C357.4375,24.7969 357.4063,24.9375 357.4063,25.4219 L357.4063,26.2969 L353.0469,26.2969 L353.0469,23.875 Z " fill="#000000"/><text fill="#000000" font-family="sans-serif" font-size="14" lengthAdjust="spacing" textLength="49" x="374.75" y="27.8467">Animal</text><line style="stroke:#181818;stroke-width:0.5;" x1="287" x2="479" y1="39" y2="39"/><ellipse cx="297" cy="52.6484" fill="none" rx="3" ry="3" style="stroke:#038048;stroke-width:1.0;"/><text fill="#000000" font-family="sans-serif" font-size="14" lengthAdjust="spacing" textLength="61" x="306" y="55.9951">id : Long</text><line style="stroke:#181818;stroke-width:1.0;" x1="287" x2="479" y1="63.2969" y2="63.2969"/><text fill="#000000" font-family="sans-serif" font-size="14" lengthAdjust="spacing" textLength="97" x="292" y="80.292">name : String</text><text fill="#000000" font-family="sans-serif" font-size="14" lengthAdjust="spacing" textLength="111" x="292" y="96.5889">species : String</text><text fill="#000000" font-family="sans-serif" font-size="14" lengthAdjust="spacing" textLength="100" x="292" y="112.8857">breed : String</text><text fill="#000000" font-family="sans-serif" font-size="14" lengthAdjust="spacing" textLength="124" x="292" y="129.1826">gender : GENDER</text><text fill="#000000" font-family="sans-serif" font-size="14" lengthAdjust="spacing" textLength="93" x="292" y="145.4795">color : String</text><text fill="#000000" font-family="sans-serif" font-size="14" lengthAdjust="spacing" textLength="171" x="292" y="161.7764">dateOfBirth : LocalDate</text><line style="stroke:#181818;stroke-width:1.0;" x1="287" x2="479" y1="169.0781" y2="169.0781"/><ellipse cx="297" cy="182.7266" fill="none" rx="3" ry="3" style="stroke:#038048;stroke-width:1.0;"/><text fill="#000000" font-family="sans-serif" font-size="14" lengthAdjust="spacing" textLength="168" x="306" y="186.0732">customer_id : Long [FK]</text><ellipse cx="297" cy="199.0234" fill="none" rx="3" ry="3" style="stroke:#038048;stroke-width:1.0;"/><text fill="#000000" font-family="sans-serif" font-size="14" lengthAdjust="spacing" textLength="154" x="306" y="202.3701">vaccine_id : Long [FK]</text></g><!--class customer--><g id="elem_customer"><rect codeLine="15" fill="#F1F1F1" height="145.7813" id="customer" rx="2.5" ry="2.5" style="stroke:#181818;stroke-width:0.5;" width="124" x="7" y="287"/><ellipse cx="31.9" cy="303" fill="#ADD1B2" rx="11" ry="11" style="stroke:#181818;stroke-width:1.0;"/><path d="M30.6969,303.875 L32.15,303.875 L32.15,303.9844 C32.15,304.3906 32.1813,304.5469 32.2594,304.7031 C32.4156,304.9531 32.6969,305.1094 32.9938,305.1094 C33.2438,305.1094 33.5094,304.9688 33.6656,304.75 C33.7906,304.5938 33.8219,304.4375 33.8219,303.9844 L33.8219,302.0625 C33.8219,301.9063 33.8219,301.8594 33.8063,301.7031 C33.7438,301.2344 33.4313,300.9219 32.9781,300.9219 C32.7281,300.9219 32.4625,301.0625 32.2906,301.2813 C32.1813,301.4531 32.15,301.6094 32.15,302.0625 L32.15,302.1875 L30.6969,302.1875 L30.6969,299.7813 L34.6813,299.7813 L34.6813,300.6406 C34.6813,301.0469 34.7125,301.2188 34.7906,301.375 C34.9625,301.625 35.2438,301.7813 35.525,301.7813 C35.7906,301.7813 36.0563,301.6406 36.2281,301.4219 C36.3375,301.25 36.3688,301.1094 36.3688,300.6406 L36.3688,298.0938 L28.7438,298.0938 C28.3063,298.0938 28.1813,298.1094 28.025,298.2031 C27.775,298.3594 27.6188,298.6563 27.6188,298.9375 C27.6188,299.2188 27.7594,299.4688 27.9781,299.6406 C28.1344,299.75 28.3219,299.7813 28.7438,299.7813 L28.9938,299.7813 L28.9938,306.2969 L28.7438,306.2969 C28.3375,306.2969 28.1813,306.3125 28.025,306.4219 C27.775,306.5938 27.6188,306.8594 27.6188,307.1563 C27.6188,307.4219 27.7594,307.6719 27.9781,307.8281 C28.1188,307.9531 28.3531,308 28.7438,308 L36.7438,308 L36.7438,305.4219 C36.7438,304.9844 36.7125,304.8438 36.6344,304.6875 C36.4625,304.4375 36.1813,304.2813 35.9,304.2813 C35.6344,304.2813 35.3688,304.3906 35.1969,304.6406 C35.0875,304.7969 35.0563,304.9375 35.0563,305.4219 L35.0563,306.2969 L30.6969,306.2969 L30.6969,303.875 Z " fill="#000000"/><text fill="#000000" font-family="sans-serif" font-size="14" lengthAdjust="spacing" textLength="70" x="48.1" y="307.8467">Customer</text><line style="stroke:#181818;stroke-width:0.5;" x1="8" x2="130" y1="319" y2="319"/><ellipse cx="18" cy="332.6484" fill="none" rx="3" ry="3" style="stroke:#038048;stroke-width:1.0;"/><text fill="#000000" font-family="sans-serif" font-size="14" lengthAdjust="spacing" textLength="61" x="27" y="335.9951">id : Long</text><line style="stroke:#181818;stroke-width:1.0;" x1="8" x2="130" y1="343.2969" y2="343.2969"/><text fill="#000000" font-family="sans-serif" font-size="14" lengthAdjust="spacing" textLength="97" x="13" y="360.292">name : String</text><text fill="#000000" font-family="sans-serif" font-size="14" lengthAdjust="spacing" textLength="103" x="13" y="376.5889">phone : String</text><text fill="#000000" font-family="sans-serif" font-size="14" lengthAdjust="spacing" textLength="96" x="13" y="392.8857">email : String</text><text fill="#000000" font-family="sans-serif" font-size="14" lengthAdjust="spacing" textLength="112" x="13" y="409.1826">address : String</text><text fill="#000000" font-family="sans-serif" font-size="14" lengthAdjust="spacing" textLength="84" x="13" y="425.4795">city : String</text></g><!--class vaccine--><g id="elem_vaccine"><rect codeLine="25" fill="#F1F1F1" height="129.4844" id="vaccine" rx="2.5" ry="2.5" style="stroke:#181818;stroke-width:0.5;" width="247" x="259.5" y="295.5"/><ellipse cx="350.75" cy="311.5" fill="#ADD1B2" rx="11" ry="11" style="stroke:#181818;stroke-width:1.0;"/><path d="M349.5469,312.375 L351,312.375 L351,312.4844 C351,312.8906 351.0313,313.0469 351.1094,313.2031 C351.2656,313.4531 351.5469,313.6094 351.8438,313.6094 C352.0938,313.6094 352.3594,313.4688 352.5156,313.25 C352.6406,313.0938 352.6719,312.9375 352.6719,312.4844 L352.6719,310.5625 C352.6719,310.4063 352.6719,310.3594 352.6563,310.2031 C352.5938,309.7344 352.2813,309.4219 351.8281,309.4219 C351.5781,309.4219 351.3125,309.5625 351.1406,309.7813 C351.0313,309.9531 351,310.1094 351,310.5625 L351,310.6875 L349.5469,310.6875 L349.5469,308.2813 L353.5313,308.2813 L353.5313,309.1406 C353.5313,309.5469 353.5625,309.7188 353.6406,309.875 C353.8125,310.125 354.0938,310.2813 354.375,310.2813 C354.6406,310.2813 354.9063,310.1406 355.0781,309.9219 C355.1875,309.75 355.2188,309.6094 355.2188,309.1406 L355.2188,306.5938 L347.5938,306.5938 C347.1563,306.5938 347.0313,306.6094 346.875,306.7031 C346.625,306.8594 346.4688,307.1563 346.4688,307.4375 C346.4688,307.7188 346.6094,307.9688 346.8281,308.1406 C346.9844,308.25 347.1719,308.2813 347.5938,308.2813 L347.8438,308.2813 L347.8438,314.7969 L347.5938,314.7969 C347.1875,314.7969 347.0313,314.8125 346.875,314.9219 C346.625,315.0938 346.4688,315.3594 346.4688,315.6563 C346.4688,315.9219 346.6094,316.1719 346.8281,316.3281 C346.9688,316.4531 347.2031,316.5 347.5938,316.5 L355.5938,316.5 L355.5938,313.9219 C355.5938,313.4844 355.5625,313.3438 355.4844,313.1875 C355.3125,312.9375 355.0313,312.7813 354.75,312.7813 C354.4844,312.7813 354.2188,312.8906 354.0469,313.1406 C353.9375,313.2969 353.9063,313.4375 353.9063,313.9219 L353.9063,314.7969 L349.5469,314.7969 L349.5469,312.375 Z " fill="#000000"/><text fill="#000000" font-family="sans-serif" font-size="14" lengthAdjust="spacing" textLength="56" x="371.25" y="316.3467">Vaccine</text><line style="stroke:#181818;stroke-width:0.5;" x1="260.5" x2="505.5" y1="327.5" y2="327.5"/><ellipse cx="270.5" cy="341.1484" fill="none" rx="3" ry="3" style="stroke:#038048;stroke-width:1.0;"/><text fill="#000000" font-family="sans-serif" font-size="14" lengthAdjust="spacing" textLength="61" x="279.5" y="344.4951">id : Long</text><line style="stroke:#181818;stroke-width:1.0;" x1="260.5" x2="505.5" y1="351.7969" y2="351.7969"/><text fill="#000000" font-family="sans-serif" font-size="14" lengthAdjust="spacing" textLength="97" x="265.5" y="368.792">name : String</text><text fill="#000000" font-family="sans-serif" font-size="14" lengthAdjust="spacing" textLength="92" x="265.5" y="385.0889">code : String</text><text fill="#000000" font-family="sans-serif" font-size="14" lengthAdjust="spacing" textLength="235" x="265.5" y="401.3857">protectionStartDate : LocalDate</text><text fill="#000000" font-family="sans-serif" font-size="14" lengthAdjust="spacing" textLength="225" x="265.5" y="417.6826">protectionEndDate : LocalDate</text></g><!--class appointment--><g id="elem_appointment"><rect codeLine="34" fill="#F1F1F1" height="121.1875" id="appointment" rx="2.5" ry="2.5" style="stroke:#181818;stroke-width:0.5;" width="264" x="542" y="299.5"/><ellipse cx="620.75" cy="315.5" fill="#ADD1B2" rx="11" ry="11" style="stroke:#181818;stroke-width:1.0;"/><path d="M619.5469,316.375 L621,316.375 L621,316.4844 C621,316.8906 621.0313,317.0469 621.1094,317.2031 C621.2656,317.4531 621.5469,317.6094 621.8438,317.6094 C622.0938,317.6094 622.3594,317.4688 622.5156,317.25 C622.6406,317.0938 622.6719,316.9375 622.6719,316.4844 L622.6719,314.5625 C622.6719,314.4063 622.6719,314.3594 622.6563,314.2031 C622.5938,313.7344 622.2813,313.4219 621.8281,313.4219 C621.5781,313.4219 621.3125,313.5625 621.1406,313.7813 C621.0313,313.9531 621,314.1094 621,314.5625 L621,314.6875 L619.5469,314.6875 L619.5469,312.2813 L623.5313,312.2813 L623.5313,313.1406 C623.5313,313.5469 623.5625,313.7188 623.6406,313.875 C623.8125,314.125 624.0938,314.2813 624.375,314.2813 C624.6406,314.2813 624.9063,314.1406 625.0781,313.9219 C625.1875,313.75 625.2188,313.6094 625.2188,313.1406 L625.2188,310.5938 L617.5938,310.5938 C617.1563,310.5938 617.0313,310.6094 616.875,310.7031 C616.625,310.8594 616.4688,311.1563 616.4688,311.4375 C616.4688,311.7188 616.6094,311.9688 616.8281,312.1406 C616.9844,312.25 617.1719,312.2813 617.5938,312.2813 L617.8438,312.2813 L617.8438,318.7969 L617.5938,318.7969 C617.1875,318.7969 617.0313,318.8125 616.875,318.9219 C616.625,319.0938 616.4688,319.3594 616.4688,319.6563 C616.4688,319.9219 616.6094,320.1719 616.8281,320.3281 C616.9688,320.4531 617.2031,320.5 617.5938,320.5 L625.5938,320.5 L625.5938,317.9219 C625.5938,317.4844 625.5625,317.3438 625.4844,317.1875 C625.3125,316.9375 625.0313,316.7813 624.75,316.7813 C624.4844,316.7813 624.2188,316.8906 624.0469,317.1406 C623.9375,317.2969 623.9063,317.4375 623.9063,317.9219 L623.9063,318.7969 L619.5469,318.7969 L619.5469,316.375 Z " fill="#000000"/><text fill="#000000" font-family="sans-serif" font-size="14" lengthAdjust="spacing" textLength="98" x="641.25" y="320.3467">Appointment</text><line style="stroke:#181818;stroke-width:0.5;" x1="543" x2="805" y1="331.5" y2="331.5"/><ellipse cx="553" cy="345.1484" fill="none" rx="3" ry="3" style="stroke:#038048;stroke-width:1.0;"/><text fill="#000000" font-family="sans-serif" font-size="14" lengthAdjust="spacing" textLength="61" x="562" y="348.4951">id : Long</text><line style="stroke:#181818;stroke-width:1.0;" x1="543" x2="805" y1="355.7969" y2="355.7969"/><text fill="#000000" font-family="sans-serif" font-size="14" lengthAdjust="spacing" textLength="252" x="548" y="372.792">appointmentDate : LocalDateTime</text><line style="stroke:#181818;stroke-width:1.0;" x1="543" x2="805" y1="380.0938" y2="380.0938"/><ellipse cx="553" cy="393.7422" fill="none" rx="3" ry="3" style="stroke:#038048;stroke-width:1.0;"/><text fill="#000000" font-family="sans-serif" font-size="14" lengthAdjust="spacing" textLength="147" x="562" y="397.0889">animal_id : Long [FK]</text><ellipse cx="553" cy="410.0391" fill="none" rx="3" ry="3" style="stroke:#038048;stroke-width:1.0;"/><text fill="#000000" font-family="sans-serif" font-size="14" lengthAdjust="spacing" textLength="148" x="562" y="413.3857">doctor_id : Long [FK]</text></g><!--class doctor--><g id="elem_doctor"><rect codeLine="43" fill="#F1F1F1" height="145.7813" id="doctor" rx="2.5" ry="2.5" style="stroke:#181818;stroke-width:0.5;" width="124" x="612" y="510"/><ellipse cx="645.9" cy="526" fill="#ADD1B2" rx="11" ry="11" style="stroke:#181818;stroke-width:1.0;"/><path d="M644.6969,526.875 L646.15,526.875 L646.15,526.9844 C646.15,527.3906 646.1813,527.5469 646.2594,527.7031 C646.4156,527.9531 646.6969,528.1094 646.9938,528.1094 C647.2438,528.1094 647.5094,527.9688 647.6656,527.75 C647.7906,527.5938 647.8219,527.4375 647.8219,526.9844 L647.8219,525.0625 C647.8219,524.9063 647.8219,524.8594 647.8063,524.7031 C647.7438,524.2344 647.4313,523.9219 646.9781,523.9219 C646.7281,523.9219 646.4625,524.0625 646.2906,524.2813 C646.1813,524.4531 646.15,524.6094 646.15,525.0625 L646.15,525.1875 L644.6969,525.1875 L644.6969,522.7813 L648.6813,522.7813 L648.6813,523.6406 C648.6813,524.0469 648.7125,524.2188 648.7906,524.375 C648.9625,524.625 649.2438,524.7813 649.525,524.7813 C649.7906,524.7813 650.0563,524.6406 650.2281,524.4219 C650.3375,524.25 650.3688,524.1094 650.3688,523.6406 L650.3688,521.0938 L642.7438,521.0938 C642.3063,521.0938 642.1813,521.1094 642.025,521.2031 C641.775,521.3594 641.6188,521.6563 641.6188,521.9375 C641.6188,522.2188 641.7594,522.4688 641.9781,522.6406 C642.1344,522.75 642.3219,522.7813 642.7438,522.7813 L642.9938,522.7813 L642.9938,529.2969 L642.7438,529.2969 C642.3375,529.2969 642.1813,529.3125 642.025,529.4219 C641.775,529.5938 641.6188,529.8594 641.6188,530.1563 C641.6188,530.4219 641.7594,530.6719 641.9781,530.8281 C642.1188,530.9531 642.3531,531 642.7438,531 L650.7438,531 L650.7438,528.4219 C650.7438,527.9844 650.7125,527.8438 650.6344,527.6875 C650.4625,527.4375 650.1813,527.2813 649.9,527.2813 C649.6344,527.2813 649.3688,527.3906 649.1969,527.6406 C649.0875,527.7969 649.0563,527.9375 649.0563,528.4219 L649.0563,529.2969 L644.6969,529.2969 L644.6969,526.875 Z " fill="#000000"/><text fill="#000000" font-family="sans-serif" font-size="14" lengthAdjust="spacing" textLength="50" x="664.1" y="530.8467">Doctor</text><line style="stroke:#181818;stroke-width:0.5;" x1="613" x2="735" y1="542" y2="542"/><ellipse cx="623" cy="555.6484" fill="none" rx="3" ry="3" style="stroke:#038048;stroke-width:1.0;"/><text fill="#000000" font-family="sans-serif" font-size="14" lengthAdjust="spacing" textLength="61" x="632" y="558.9951">id : Long</text><line style="stroke:#181818;stroke-width:1.0;" x1="613" x2="735" y1="566.2969" y2="566.2969"/><text fill="#000000" font-family="sans-serif" font-size="14" lengthAdjust="spacing" textLength="97" x="618" y="583.292">name : String</text><text fill="#000000" font-family="sans-serif" font-size="14" lengthAdjust="spacing" textLength="103" x="618" y="599.5889">phone : String</text><text fill="#000000" font-family="sans-serif" font-size="14" lengthAdjust="spacing" textLength="96" x="618" y="615.8857">email : String</text><text fill="#000000" font-family="sans-serif" font-size="14" lengthAdjust="spacing" textLength="112" x="618" y="632.1826">address : String</text><text fill="#000000" font-family="sans-serif" font-size="14" lengthAdjust="spacing" textLength="84" x="618" y="648.4795">city : String</text></g><!--class availableDate--><g id="elem_availableDate"><rect codeLine="53" fill="#F1F1F1" height="104.8906" id="availableDate" rx="2.5" ry="2.5" style="stroke:#181818;stroke-width:0.5;" width="195" x="576.5" y="733"/><ellipse cx="619.85" cy="749" fill="#ADD1B2" rx="11" ry="11" style="stroke:#181818;stroke-width:1.0;"/><path d="M618.6469,749.875 L620.1,749.875 L620.1,749.9844 C620.1,750.3906 620.1313,750.5469 620.2094,750.7031 C620.3656,750.9531 620.6469,751.1094 620.9438,751.1094 C621.1938,751.1094 621.4594,750.9688 621.6156,750.75 C621.7406,750.5938 621.7719,750.4375 621.7719,749.9844 L621.7719,748.0625 C621.7719,747.9063 621.7719,747.8594 621.7563,747.7031 C621.6938,747.2344 621.3813,746.9219 620.9281,746.9219 C620.6781,746.9219 620.4125,747.0625 620.2406,747.2813 C620.1313,747.4531 620.1,747.6094 620.1,748.0625 L620.1,748.1875 L618.6469,748.1875 L618.6469,745.7813 L622.6313,745.7813 L622.6313,746.6406 C622.6313,747.0469 622.6625,747.2188 622.7406,747.375 C622.9125,747.625 623.1938,747.7813 623.475,747.7813 C623.7406,747.7813 624.0063,747.6406 624.1781,747.4219 C624.2875,747.25 624.3188,747.1094 624.3188,746.6406 L624.3188,744.0938 L616.6938,744.0938 C616.2563,744.0938 616.1313,744.1094 615.975,744.2031 C615.725,744.3594 615.5688,744.6563 615.5688,744.9375 C615.5688,745.2188 615.7094,745.4688 615.9281,745.6406 C616.0844,745.75 616.2719,745.7813 616.6938,745.7813 L616.9438,745.7813 L616.9438,752.2969 L616.6938,752.2969 C616.2875,752.2969 616.1313,752.3125 615.975,752.4219 C615.725,752.5938 615.5688,752.8594 615.5688,753.1563 C615.5688,753.4219 615.7094,753.6719 615.9281,753.8281 C616.0688,753.9531 616.3031,754 616.6938,754 L624.6938,754 L624.6938,751.4219 C624.6938,750.9844 624.6625,750.8438 624.5844,750.6875 C624.4125,750.4375 624.1313,750.2813 623.85,750.2813 C623.5844,750.2813 623.3188,750.3906 623.1469,750.6406 C623.0375,750.7969 623.0063,750.9375 623.0063,751.4219 L623.0063,752.2969 L618.6469,752.2969 L618.6469,749.875 Z " fill="#000000"/><text fill="#000000" font-family="sans-serif" font-size="14" lengthAdjust="spacing" textLength="100" x="640.15" y="753.8467">AvailableDate</text><line style="stroke:#181818;stroke-width:0.5;" x1="577.5" x2="770.5" y1="765" y2="765"/><ellipse cx="587.5" cy="778.6484" fill="none" rx="3" ry="3" style="stroke:#038048;stroke-width:1.0;"/><text fill="#000000" font-family="sans-serif" font-size="14" lengthAdjust="spacing" textLength="61" x="596.5" y="781.9951">id : Long</text><line style="stroke:#181818;stroke-width:1.0;" x1="577.5" x2="770.5" y1="789.2969" y2="789.2969"/><text fill="#000000" font-family="sans-serif" font-size="14" lengthAdjust="spacing" textLength="183" x="582.5" y="806.292">availableDate : LocalDate</text><line style="stroke:#181818;stroke-width:1.0;" x1="577.5" x2="770.5" y1="813.5938" y2="813.5938"/><ellipse cx="587.5" cy="827.2422" fill="none" rx="3" ry="3" style="stroke:#038048;stroke-width:1.0;"/><text fill="#000000" font-family="sans-serif" font-size="14" lengthAdjust="spacing" textLength="148" x="596.5" y="830.5889">doctor_id : Long [FK]</text></g><!--link animal to customer--><g id="link_animal_customer"><path codeLine="61" d="M268.4817,137.174 C207.1387,156.121 148.093,184.094 101,240 C89.836,253.253 84.7234,262.3387 79.9559,279.0867 " fill="none" id="animal-customer" style="stroke:#181818;stroke-width:1.0;"/><line style="stroke:#181818;stroke-width:1.0;" x1="278.0363" x2="283.9093" y1="134.2229" y2="126.1292"/><line style="stroke:#181818;stroke-width:1.0;" x1="278.0363" x2="287.4507" y1="134.2229" y2="137.5948"/><line style="stroke:#181818;stroke-width:1.0;" x1="278.0363" x2="285.68" y1="134.2229" y2="131.862"/><ellipse cx="272.3035" cy="135.9936" fill="none" rx="4" ry="4" style="stroke:#181818;stroke-width:1.0;"/><line style="stroke:#181818;stroke-width:1.0;" x1="82.7079" x2="75.0136" y1="284.029" y2="281.8387"/><line style="stroke:#181818;stroke-width:1.0;" x1="83.5293" x2="75.8349" y1="281.1436" y2="278.9533"/><line style="stroke:#181818;stroke-width:1.0;" x1="79.9559" x2="77.7656" y1="279.0867" y2="286.781"/><text fill="#000000" font-family="sans-serif" font-size="13" lengthAdjust="spacing" textLength="272" x="102" y="253.0669">Many animals can belong to one customer</text></g><!--link animal to vaccine--><g id="link_animal_vaccine"><path codeLine="62" d="M383,228.262 C383,256.934 383,261.363 383,287.178 " fill="none" id="animal-vaccine" style="stroke:#181818;stroke-width:1.0;"/><line style="stroke:#181818;stroke-width:1.0;" x1="383" x2="377" y1="218.262" y2="210.262"/><line style="stroke:#181818;stroke-width:1.0;" x1="383" x2="389" y1="218.262" y2="210.262"/><line style="stroke:#181818;stroke-width:1.0;" x1="383" x2="383" y1="218.262" y2="210.262"/><ellipse cx="383" cy="224.262" fill="none" rx="4" ry="4" style="stroke:#181818;stroke-width:1.0;"/><line style="stroke:#181818;stroke-width:1.0;" x1="387" x2="379" y1="291.178" y2="291.178"/><line style="stroke:#181818;stroke-width:1.0;" x1="387" x2="379" y1="288.178" y2="288.178"/><line style="stroke:#181818;stroke-width:1.0;" x1="383" x2="383" y1="287.178" y2="295.178"/><text fill="#000000" font-family="sans-serif" font-size="13" lengthAdjust="spacing" textLength="232" x="384" y="253.0669">Many animals can have one vaccine</text></g><!--link animal to appointment--><g id="link_animal_appointment"><path codeLine="63" d="M487.492,146.842 C536.329,168.14 585.937,196.65 625,240 C640.106,256.764 644.7127,261.9272 652.2687,282.4942 " fill="none" id="animal-appointment" style="stroke:#181818;stroke-width:1.0;"/><line style="stroke:#181818;stroke-width:1.0;" x1="482.2265" x2="485.4245" y1="148.9095" y2="141.5765"/><line style="stroke:#181818;stroke-width:1.0;" x1="484.9764" x2="488.1744" y1="150.1087" y2="142.7757"/><line style="stroke:#181818;stroke-width:1.0;" x1="487.492" x2="480.159" y1="146.842" y2="143.644"/><line style="stroke:#181818;stroke-width:1.0;" x1="655.7172" x2="664.1079" y1="291.8807" y2="297.3209"/><line style="stroke:#181818;stroke-width:1.0;" x1="655.7172" x2="652.8441" y1="291.8807" y2="301.4591"/><line style="stroke:#181818;stroke-width:1.0;" x1="655.7172" x2="658.476" y1="291.8807" y2="299.39"/><ellipse cx="653.6481" cy="286.2488" fill="none" rx="4" ry="4" style="stroke:#181818;stroke-width:1.0;"/><text fill="#000000" font-family="sans-serif" font-size="13" lengthAdjust="spacing" textLength="270" x="639" y="253.0669">One animal can have many appointments</text></g><!--link appointment to doctor--><g id="link_appointment_doctor"><path codeLine="64" d="M674,438.515 C674,466.001 674,472.879 674,501.773 " fill="none" id="appointment-doctor" style="stroke:#181818;stroke-width:1.0;"/><line style="stroke:#181818;stroke-width:1.0;" x1="674" x2="668" y1="428.515" y2="420.515"/><line style="stroke:#181818;stroke-width:1.0;" x1="674" x2="680" y1="428.515" y2="420.515"/><line style="stroke:#181818;stroke-width:1.0;" x1="674" x2="674" y1="428.515" y2="420.515"/><ellipse cx="674" cy="434.515" fill="none" rx="4" ry="4" style="stroke:#181818;stroke-width:1.0;"/><line style="stroke:#181818;stroke-width:1.0;" x1="678" x2="670" y1="505.773" y2="505.773"/><line style="stroke:#181818;stroke-width:1.0;" x1="678" x2="670" y1="502.773" y2="502.773"/><line style="stroke:#181818;stroke-width:1.0;" x1="674" x2="674" y1="501.773" y2="509.773"/><text fill="#000000" font-family="sans-serif" font-size="13" lengthAdjust="spacing" textLength="291" x="675" y="476.0669">Many appointments can belong to one doctor</text></g><!--link doctor to availableDate--><g id="link_doctor_availableDate"><path codeLine="65" d="M674,664.102 C674,689.474 674,691.465 674,714.818 " fill="none" id="doctor-availableDate" style="stroke:#181818;stroke-width:1.0;"/><line style="stroke:#181818;stroke-width:1.0;" x1="670" x2="678" y1="660.102" y2="660.102"/><line style="stroke:#181818;stroke-width:1.0;" x1="670" x2="678" y1="663.102" y2="663.102"/><line style="stroke:#181818;stroke-width:1.0;" x1="674" x2="674" y1="664.102" y2="656.102"/><line style="stroke:#181818;stroke-width:1.0;" x1="674" x2="680" y1="724.818" y2="732.818"/><line style="stroke:#181818;stroke-width:1.0;" x1="674" x2="668" y1="724.818" y2="732.818"/><line style="stroke:#181818;stroke-width:1.0;" x1="674" x2="674" y1="724.818" y2="732.818"/><ellipse cx="674" cy="718.818" fill="none" rx="4" ry="4" style="stroke:#181818;stroke-width:1.0;"/><text fill="#000000" font-family="sans-serif" font-size="13" lengthAdjust="spacing" textLength="299" x="675" y="699.0669">Many available dates can belong to one doctor</text></g><!--SRC=[nLJBReCm4Bpp5Ikk4J_GMzgaFVGHgQbwgQhAiRU99Un5neqKXVnxZJ5WA8bowmMnuvdrx0DGMsaFaCwrL2nFWPN0_2iS4u0PI04ty4Hwww8iSm_D53feROtqO5aWbrZ6qCOWYXZOeXPe7FAmV5aiNnt2AISJKmIpkFg-bSRk_8MSvGi7jRVEWF-KbXIQhyuHVDm_VlgpFUDSQXmVdP84GtbtGUqBR5DTMsAn8pq0K36Pnm0Jmc0vQ0Alx-tYoCfxOzOx2SQlDS9938qPiiYj9BsspDYwOQFczOob5d_E8rVpeY2fhN9nimHzVCvTH1bdVfCg6bspK5E34yGjcGjpMtY2TzHm_sTcyxqJiqsETN5DVsBaR8S6fCcrFjk1y1MUACkggb_P6qYVcJw4dhfTPXescDTAIr3Nt5BJKOfsrwOoxDWUlJYGEcrLPHaT1zlWz2l738HEhNpEdbUw794gc0X3x3n4_8bI6dQQ15LhPjJLaAf5_Q_aGhPV]--></g></svg>